<?xml version="1.0" encoding="UTF-8" standalone="no"?><!DOCTYPE svg PUBLIC "-//W3C//DTD SVG 1.1//EN" "http://www.w3.org/Graphics/SVG/1.1/DTD/svg11.dtd"><svg width="100%" height="100%" viewBox="0 0 71 25" version="1.1" xmlns="http://www.w3.org/2000/svg" xmlns:xlink="http://www.w3.org/1999/xlink" xml:space="preserve" xmlns:serif="http://www.serif.com/" style="fill-rule:evenodd;clip-rule:evenodd;stroke-linejoin:round;stroke-miterlimit:2;"><path d="M31.626,10.045l2.16,0l0.192,1.474l0.044,0c0.627,-1.133 1.564,-1.685 2.414,-1.685c0.506,0 0.788,0.074 1.027,0.18l-0.431,2.28c-0.314,-0.074 -0.565,-0.133 -0.937,-0.133c-0.627,0 -1.384,0.403 -1.819,1.52l0,4.841l-2.65,0l0,-8.477Z" style="fill:#4f185a;fill-rule:nonzero;"/><path d="M37.612,14.274c0,-2.74 1.979,-4.437 4.021,-4.437c2.442,0 3.634,1.771 3.634,4.08c0,0.478 -0.059,0.937 -0.118,1.148l-4.974,0c0.239,1.161 1.042,1.639 2.116,1.639c0.611,0 1.176,-0.18 1.787,-0.537l0.879,1.595c-0.879,0.627 -2.042,0.968 -3.023,0.968c-2.445,0 -4.322,-1.638 -4.322,-4.456Zm5.408,-0.953c0,-0.834 -0.372,-1.458 -1.34,-1.458c-0.73,0 -1.372,0.462 -1.549,1.458l2.889,0Z" style="fill:#4f185a;fill-rule:nonzero;"/><path d="M46.149,16.151c0,-1.787 1.4,-2.755 4.707,-3.112c-0.059,-0.686 -0.415,-1.089 -1.281,-1.089c-0.67,0 -1.372,0.27 -2.219,0.745l-0.925,-1.744c1.118,-0.671 2.325,-1.117 3.65,-1.117c2.19,0 3.425,1.222 3.425,3.872l0,4.813l-2.159,0l-0.18,-0.85l-0.075,0c-0.701,0.627 -1.489,1.058 -2.426,1.058c-1.564,0.003 -2.517,-1.161 -2.517,-2.576Zm4.704,-0.149l0,-1.356c-1.654,0.208 -2.19,0.702 -2.19,1.297c0,0.491 0.356,0.73 0.909,0.73c0.537,0 0.897,-0.252 1.281,-0.671Z" style="fill:#4f185a;fill-rule:nonzero;"/><path d="M54.623,14.274c0,-2.799 2.085,-4.44 4.453,-4.44c1.027,0 1.83,0.356 2.473,0.909l-1.238,1.682c-0.388,-0.314 -0.714,-0.447 -1.074,-0.447c-1.176,0 -1.905,0.893 -1.905,2.293c0,1.415 0.776,2.309 1.802,2.309c0.538,0 1.043,-0.255 1.475,-0.596l1.027,1.744c-0.835,0.729 -1.905,0.999 -2.799,0.999c-2.384,0.003 -4.214,-1.635 -4.214,-4.453Z" style="fill:#4f185a;fill-rule:nonzero;"/><path d="M62.651,6.619l2.649,0l0,2.861l-0.133,1.505c0.612,-0.565 1.446,-1.148 2.591,-1.148c1.846,0 2.638,1.325 2.638,3.441l0,5.244l-2.65,0l0,-4.915c0,-1.176 -0.314,-1.505 -0.984,-1.505c-0.596,0 -0.952,0.267 -1.462,0.76l0,5.66l-2.649,0l0,-11.903Z" style="fill:#4f185a;fill-rule:nonzero;"/><path d="M32.89,21.703c0.676,0 0.977,0.487 0.977,0.977c0,0.491 -0.301,0.968 -0.977,0.968l-0.618,0l0,1.049l-0.605,0l0,-2.994l1.223,0Zm-0.032,1.418c0.292,0 0.401,-0.227 0.401,-0.438c0,-0.217 -0.109,-0.443 -0.391,-0.443l-0.596,0l0,0.881l0.586,0Z" style="fill:#4f185a;fill-rule:nonzero;"/><path d="M34.73,23.202c0,-0.854 0.67,-1.552 1.52,-1.552c0.848,0 1.527,0.701 1.527,1.552c0,0.847 -0.679,1.548 -1.527,1.548c-0.85,0 -1.52,-0.701 -1.52,-1.548Zm2.439,0c0,-0.54 -0.382,-0.984 -0.919,-0.984c-0.54,0 -0.918,0.444 -0.918,0.984c0,0.539 0.378,0.977 0.918,0.977c0.537,0 0.919,-0.438 0.919,-0.977Z" style="fill:#4f185a;fill-rule:nonzero;"/><path d="M40.867,21.703l0,0.533l-0.828,0l0,2.461l-0.602,0l0,-2.461l-0.826,0l0,-0.533l2.256,0Z" style="fill:#4f185a;fill-rule:nonzero;"/><path d="M42.487,24.163l1.31,0l0,0.534l-1.915,0l0,-2.994l1.877,0l0,0.533l-1.272,0l0,0.714l1.114,0l0,0.543l-1.114,0l0,0.67Z" style="fill:#4f185a;fill-rule:nonzero;"/><path d="M46.571,21.703l0.602,0l0,2.994l-0.543,0l-1.087,-1.877l0,1.877l-0.605,0l0,-2.994l0.562,0l1.071,1.855l0,-1.855Z" style="fill:#4f185a;fill-rule:nonzero;"/><path d="M50.446,21.703l0,0.533l-0.828,0l0,2.461l-0.602,0l0,-2.461l-0.826,0l0,-0.533l2.256,0Z" style="fill:#4f185a;fill-rule:nonzero;"/><rect x="51.461" y="21.703" width="0.605" height="2.994" style="fill:#4f185a;fill-rule:nonzero;"/><path d="M55.218,24.697l-0.242,-0.717l-1.12,0l-0.239,0.717l-0.642,0l1.117,-2.994l0.652,0l1.114,2.994l-0.64,0Zm-1.185,-1.241l0.763,0l-0.381,-1.133l-0.382,1.133Z" style="fill:#4f185a;fill-rule:nonzero;"/><path d="M57.362,24.163l1.136,0l0,0.534l-1.737,0l0,-2.994l0.601,0l0,2.46Z" style="fill:#4f185a;fill-rule:nonzero;"/><rect x="0" y="0" width="24.71" height="24.71" style="fill:#ffd814;fill-rule:nonzero;"/><path d="M21.976,12.356l-9.622,-9.622l0,9.622l-9.623,-9.622l0,19.245l9.623,-9.623l0,9.623l9.622,-9.623Z" style="fill:#fff;fill-rule:nonzero;"/></svg>