<?xml version="1.0" encoding="UTF-8" standalone="no"?><!DOCTYPE svg PUBLIC "-//W3C//DTD SVG 1.1//EN" "http://www.w3.org/Graphics/SVG/1.1/DTD/svg11.dtd"><svg width="100%" height="100%" viewBox="0 0 58 19" version="1.1" xmlns="http://www.w3.org/2000/svg" xmlns:xlink="http://www.w3.org/1999/xlink" xml:space="preserve" xmlns:serif="http://www.serif.com/" style="fill-rule:evenodd;clip-rule:evenodd;stroke-linejoin:round;stroke-miterlimit:2;"><path d="M24.043,7.622l1.639,0l0.146,1.118l0.033,0c0.476,-0.859 1.187,-1.278 1.832,-1.278c0.384,0 0.598,0.056 0.779,0.136l-0.327,1.731c-0.238,-0.057 -0.429,-0.101 -0.713,-0.101c-0.474,0 -1.051,0.306 -1.38,1.153l0,3.674l-2.011,0l0,-6.433l0.002,0Z" style="fill:#fff;fill-rule:nonzero;"/><path d="M28.588,10.831c0,-2.079 1.504,-3.367 3.051,-3.367c1.853,0 2.758,1.345 2.758,3.096c0,0.363 -0.045,0.711 -0.092,0.872l-3.775,0c0.182,0.88 0.791,1.243 1.606,1.243c0.464,0 0.893,-0.137 1.356,-0.407l0.667,1.21c-0.667,0.475 -1.55,0.734 -2.294,0.734c-1.853,-0.002 -3.277,-1.245 -3.277,-3.381Zm4.104,-0.723c0,-0.633 -0.283,-1.106 -1.017,-1.106c-0.554,0 -1.041,0.35 -1.175,1.106l2.192,0Z" style="fill:#fff;fill-rule:nonzero;"/><path d="M35.345,7.622l1.639,0l0.146,0.803l0.033,0c0.532,-0.521 1.187,-0.961 2.058,-0.961c1.401,0 2.002,1.005 2.002,2.611l0,3.98l-2.011,0l0,-3.732c0,-0.893 -0.238,-1.142 -0.747,-1.142c-0.452,0 -0.722,0.202 -1.106,0.576l0,4.295l-2.011,0l0,-6.43l-0.003,0Z" style="fill:#fff;fill-rule:nonzero;"/><path d="M42.082,10.831c0,-2.079 1.505,-3.367 3.052,-3.367c1.853,0 2.757,1.345 2.757,3.096c0,0.363 -0.045,0.711 -0.092,0.872l-3.774,0c0.181,0.88 0.791,1.243 1.606,1.243c0.463,0 0.892,-0.137 1.356,-0.407l0.666,1.21c-0.666,0.475 -1.549,0.734 -2.293,0.734c-1.853,-0.002 -3.278,-1.245 -3.278,-3.381Zm4.104,-0.723c0,-0.633 -0.282,-1.106 -1.017,-1.106c-0.553,0 -1.041,0.35 -1.175,1.106l2.192,0Z" style="fill:#fff;fill-rule:nonzero;"/><path d="M48.343,7.622l1.99,0l0.577,2.87c0.101,0.646 0.169,1.277 0.271,1.934l0.056,0c0.113,-0.655 0.214,-1.3 0.375,-1.934l0.666,-2.87l1.728,0l0.69,2.87c0.146,0.646 0.259,1.277 0.395,1.934l0.057,0c0.101,-0.655 0.17,-1.288 0.283,-1.934l0.553,-2.87l1.865,0l-1.514,6.431l-2.35,0l-0.542,-2.454c-0.124,-0.598 -0.226,-1.187 -0.339,-1.888l-0.056,0c-0.101,0.701 -0.193,1.288 -0.306,1.888l-0.521,2.454l-2.293,0l-1.585,-6.431Z" style="fill:#fff;fill-rule:nonzero;"/><path d="M23.902,17.921l0.459,0c0.005,0.163 0.163,0.297 0.372,0.297c0.205,0 0.339,-0.113 0.339,-0.273c0,-0.125 -0.092,-0.215 -0.287,-0.273l-0.278,-0.08c-0.497,-0.132 -0.586,-0.431 -0.586,-0.636c0,-0.405 0.348,-0.685 0.784,-0.685c0.428,0 0.758,0.261 0.758,0.692l-0.459,0c0,-0.163 -0.113,-0.287 -0.311,-0.287c-0.179,0 -0.313,0.117 -0.313,0.27c0,0.057 0.016,0.172 0.254,0.241l0.255,0.073c0.343,0.101 0.642,0.277 0.642,0.661c0,0.452 -0.386,0.699 -0.814,0.699c-0.483,0 -0.815,-0.301 -0.815,-0.699Z" style="fill:#ff8f3b;fill-rule:nonzero;"/><path d="M28.162,18.58l-0.594,0l-0.732,-0.913l0,0.913l-0.459,0l0,-2.272l0.459,0l0,0.93l0.633,-0.93l0.551,0l-0.789,1.128l0.931,1.144Z" style="fill:#ff8f3b;fill-rule:nonzero;"/><rect x="28.833" y="16.308" width="0.459" height="2.272" style="fill:#ff8f3b;fill-rule:nonzero;"/><path d="M30.733,18.175l0.859,0l0,0.405l-1.318,0l0,-2.272l0.459,0l0,1.867Z" style="fill:#ff8f3b;fill-rule:nonzero;"/><path d="M32.821,18.175l0.862,0l0,0.405l-1.318,0l0,-2.272l0.456,0l0,1.867Z" style="fill:#ff8f3b;fill-rule:nonzero;"/><path d="M34.324,17.921l0.459,0c0.004,0.163 0.162,0.297 0.372,0.297c0.205,0 0.339,-0.113 0.339,-0.273c0,-0.125 -0.092,-0.215 -0.287,-0.273l-0.278,-0.08c-0.497,-0.132 -0.587,-0.431 -0.587,-0.636c0,-0.405 0.349,-0.685 0.785,-0.685c0.428,0 0.758,0.261 0.758,0.692l-0.459,0c0,-0.163 -0.113,-0.287 -0.311,-0.287c-0.179,0 -0.313,0.117 -0.313,0.27c0,0.057 0.016,0.172 0.254,0.241l0.254,0.073c0.344,0.101 0.643,0.277 0.643,0.661c0,0.452 -0.386,0.699 -0.815,0.699c-0.48,0 -0.814,-0.301 -0.814,-0.699Z" style="fill:#ff8f3b;fill-rule:nonzero;"/><rect x="0" y="0" width="18.75" height="18.75" style="fill:#ff8f3b;fill-rule:nonzero;"/><path d="M11.514,11.503l5.136,-5.136l0,10.271l-5.136,-5.135Z" style="fill:#fff;fill-rule:nonzero;"/><path d="M7.259,11.502l5.136,5.136l-10.271,0l5.135,-5.136Z" style="fill:#fff;fill-rule:nonzero;"/><path d="M7.259,7.248l-5.135,5.135l0,-10.271l5.135,5.136Z" style="fill:#fff;fill-rule:nonzero;"/><path d="M11.514,7.248l-5.135,-5.136l10.271,0l-5.136,5.136Z" style="fill:#fff;fill-rule:nonzero;"/></svg>