<?xml version="1.0" encoding="UTF-8" standalone="no"?><!DOCTYPE svg PUBLIC "-//W3C//DTD SVG 1.1//EN" "http://www.w3.org/Graphics/SVG/1.1/DTD/svg11.dtd"><svg width="100%" height="100%" viewBox="0 0 102 33" version="1.1" xmlns="http://www.w3.org/2000/svg" xmlns:xlink="http://www.w3.org/1999/xlink" xml:space="preserve" xmlns:serif="http://www.serif.com/" style="fill-rule:evenodd;clip-rule:evenodd;stroke-linejoin:round;stroke-miterlimit:2;"><path d="M42.321,13.41l2.884,0l0.257,1.969l0.058,0c0.837,-1.513 2.089,-2.25 3.224,-2.25c0.676,0 1.053,0.099 1.372,0.24l-0.576,3.046c-0.419,-0.099 -0.754,-0.178 -1.252,-0.178c-0.837,0 -1.848,0.539 -2.428,2.03l0,6.465l-3.539,0l0,-11.322Z" style="fill:#4f185a;fill-rule:nonzero;"/><path d="M50.314,19.063c0,-3.659 2.644,-5.926 5.371,-5.926c3.262,0 4.853,2.367 4.853,5.45c0,0.638 -0.079,1.251 -0.157,1.533l-6.644,0c0.32,1.55 1.393,2.188 2.827,2.188c0.816,0 1.571,-0.24 2.387,-0.717l1.173,2.13c-1.173,0.838 -2.727,1.293 -4.041,1.293c-3.261,-0.004 -5.769,-2.192 -5.769,-5.951Zm7.224,-1.272c0,-1.115 -0.498,-1.948 -1.791,-1.948c-0.973,0 -1.831,0.618 -2.067,1.948l3.858,0Z" style="fill:#4f185a;fill-rule:nonzero;"/><path d="M61.056,13.411l3.56,0l1.372,5.213c0.298,1.115 0.559,2.288 0.853,3.481l0.1,0c0.278,-1.193 0.559,-2.366 0.837,-3.481l1.392,-5.213l3.403,0l-3.659,11.318l-4.099,0l-3.759,-11.318Z" style="fill:#4f185a;fill-rule:nonzero;"/><path d="M73.053,19.063c0,-3.659 2.648,-5.926 5.371,-5.926c3.262,0 4.853,2.367 4.853,5.45c0,0.638 -0.079,1.251 -0.157,1.533l-6.644,0c0.32,1.55 1.393,2.188 2.827,2.188c0.816,0 1.57,-0.24 2.387,-0.717l1.172,2.13c-1.172,0.838 -2.727,1.293 -4.04,1.293c-3.265,-0.004 -5.769,-2.192 -5.769,-5.951Zm7.22,-1.272c0,-1.115 -0.498,-1.948 -1.791,-1.948c-0.974,0 -1.832,0.618 -2.067,1.948l3.858,0Z" style="fill:#4f185a;fill-rule:nonzero;"/><path d="M84.45,21.571c0,-2.387 1.869,-3.68 6.287,-4.157c-0.079,-0.916 -0.556,-1.455 -1.712,-1.455c-0.895,0 -1.832,0.357 -2.963,0.995l-1.236,-2.329c1.493,-0.895 3.105,-1.492 4.874,-1.492c2.926,0 4.576,1.633 4.576,5.172l0,6.428l-2.885,0l-0.24,-1.136l-0.1,0c-0.936,0.837 -1.989,1.413 -3.24,1.413c-2.089,0 -3.361,-1.55 -3.361,-3.439Zm6.286,-0.199l0,-1.811c-2.208,0.277 -2.925,0.936 -2.925,1.732c0,0.655 0.476,0.974 1.214,0.974c0.717,0 1.193,-0.34 1.711,-0.895Z" style="fill:#4f185a;fill-rule:nonzero;"/><path d="M96.406,21.052l0,-12.217l3.539,0l0,12.333c0,0.755 0.34,0.974 0.617,0.974c0.12,0 0.199,0 0.398,-0.041l0.419,2.607c-0.377,0.157 -0.953,0.298 -1.754,0.298c-2.423,0.004 -3.219,-1.587 -3.219,-3.954Z" style="fill:#4f185a;fill-rule:nonzero;"/><rect x="42.296" y="28.703" width="0.808" height="3.999" style="fill:#4f185a;fill-rule:nonzero;"/><path d="M47.007,28.703l0.804,0l0,3.999l-0.725,0l-1.451,-2.507l0,2.507l-0.808,0l0,-3.999l0.75,0l1.43,2.478l0,-2.478Z" style="fill:#4f185a;fill-rule:nonzero;"/><path d="M49.311,31.541l0.808,0c0.004,0.286 0.286,0.522 0.655,0.522c0.36,0 0.597,-0.199 0.597,-0.48c0,-0.22 -0.162,-0.377 -0.506,-0.481l-0.489,-0.141c-0.878,-0.232 -1.032,-0.758 -1.032,-1.119c0,-0.713 0.613,-1.206 1.38,-1.206c0.754,0 1.335,0.46 1.335,1.219l-0.809,0c0,-0.286 -0.198,-0.506 -0.547,-0.506c-0.314,0 -0.551,0.207 -0.551,0.477c0,0.099 0.029,0.302 0.448,0.422l0.447,0.129c0.605,0.178 1.132,0.489 1.132,1.164c0,0.796 -0.68,1.231 -1.434,1.231c-0.845,0 -1.434,-0.53 -1.434,-1.231Z" style="fill:#4f185a;fill-rule:nonzero;"/><rect x="53.67" y="28.703" width="0.808" height="3.999" style="fill:#4f185a;fill-rule:nonzero;"/><path d="M55.963,30.704c0,-1.14 0.895,-2.072 2.043,-2.072c0.605,0 1.131,0.248 1.479,0.638l-0.584,0.506c-0.228,-0.245 -0.547,-0.394 -0.895,-0.394c-0.696,0 -1.235,0.609 -1.235,1.322c0,0.713 0.526,1.338 1.26,1.338c0.522,0 1.04,-0.314 1.04,-0.779l-1.131,0l0,-0.654l2.014,0c0,1.479 -0.817,2.159 -1.902,2.159c-1.215,0.004 -2.089,-0.933 -2.089,-2.064Z" style="fill:#4f185a;fill-rule:nonzero;"/><path d="M63.658,28.703l0.804,0l0,3.999l-0.804,0l0,-1.625l-1.492,0l0,1.625l-0.808,0l0,-3.999l0.808,0l0,1.649l1.492,0l0,-1.649Z" style="fill:#4f185a;fill-rule:nonzero;"/><path d="M68.831,28.703l0,0.713l-1.102,0l0,3.286l-0.808,0l0,-3.286l-1.103,0l0,-0.713l3.013,0Z" style="fill:#4f185a;fill-rule:nonzero;"/><rect x="0" y="0" width="33" height="33" style="fill:#0094c6;fill-rule:nonzero;"/><path d="M16.499,29.349l0,-12.851l12.851,12.851l-12.852,0Z" style="fill:#fff;fill-rule:nonzero;"/><path d="M29.35,3.651l0,12.847l-12.852,-12.847l12.852,0Z" style="fill:#fff;fill-rule:nonzero;"/><path d="M3.647,29.349l0,-12.851l12.852,12.851l-12.852,0Z" style="fill:#fff;fill-rule:nonzero;"/><path d="M16.499,3.651l0,12.847l-12.852,-12.847l12.852,0Z" style="fill:#fff;fill-rule:nonzero;"/></svg>