<?xml version="1.0" encoding="UTF-8" standalone="no"?><!DOCTYPE svg PUBLIC "-//W3C//DTD SVG 1.1//EN" "http://www.w3.org/Graphics/SVG/1.1/DTD/svg11.dtd"><svg width="100%" height="100%" viewBox="0 0 58 19" version="1.1" xmlns="http://www.w3.org/2000/svg" xmlns:xlink="http://www.w3.org/1999/xlink" xml:space="preserve" xmlns:serif="http://www.serif.com/" style="fill-rule:evenodd;clip-rule:evenodd;stroke-linejoin:round;stroke-miterlimit:2;"><path d="M24.046,7.619l1.638,0l0.146,1.119l0.033,0c0.476,-0.86 1.187,-1.279 1.832,-1.279c0.384,0 0.598,0.057 0.78,0.137l-0.328,1.73c-0.237,-0.056 -0.428,-0.101 -0.711,-0.101c-0.475,0 -1.05,0.306 -1.38,1.154l0,3.673l-2.01,0l0,-6.433Z" style="fill:#fff;fill-rule:nonzero;"/><path d="M28.588,10.831c0,-2.079 1.502,-3.367 3.051,-3.367c1.853,0 2.758,1.345 2.758,3.096c0,0.363 -0.045,0.711 -0.09,0.872l-3.774,0c0.181,0.88 0.791,1.243 1.606,1.243c0.463,0 0.892,-0.137 1.356,-0.407l0.666,1.21c-0.666,0.475 -1.549,0.734 -2.296,0.734c-1.853,-0.002 -3.277,-1.245 -3.277,-3.381Zm4.104,-0.723c0,-0.633 -0.283,-1.106 -1.017,-1.106c-0.554,0 -1.041,0.35 -1.175,1.106l2.192,0Z" style="fill:#fff;fill-rule:nonzero;"/><path d="M34.691,7.62l2.023,0l0.779,2.962c0.169,0.633 0.318,1.3 0.485,1.978l0.056,0c0.158,-0.678 0.318,-1.345 0.476,-1.978l0.791,-2.962l1.933,0l-2.079,6.43l-2.328,0l-2.136,-6.43Z" style="fill:#fff;fill-rule:nonzero;"/><path d="M41.508,10.831c0,-2.079 1.504,-3.367 3.051,-3.367c1.853,0 2.757,1.345 2.757,3.096c0,0.363 -0.044,0.711 -0.089,0.872l-3.774,0c0.181,0.88 0.791,1.243 1.605,1.243c0.464,0 0.893,-0.137 1.357,-0.407l0.666,1.21c-0.666,0.475 -1.549,0.734 -2.296,0.734c-1.855,-0.002 -3.277,-1.245 -3.277,-3.381Zm4.101,-0.723c0,-0.633 -0.282,-1.106 -1.017,-1.106c-0.553,0 -1.04,0.35 -1.175,1.106l2.192,0Z" style="fill:#fff;fill-rule:nonzero;"/><path d="M47.983,12.256c0,-1.356 1.062,-2.09 3.572,-2.361c-0.045,-0.521 -0.316,-0.827 -0.973,-0.827c-0.508,0 -1.04,0.203 -1.683,0.565l-0.702,-1.323c0.848,-0.509 1.764,-0.848 2.769,-0.848c1.663,0 2.6,0.928 2.6,2.939l0,3.652l-1.639,0l-0.137,-0.645l-0.056,0c-0.532,0.475 -1.13,0.803 -1.842,0.803c-1.186,0 -1.909,-0.881 -1.909,-1.955Zm3.572,-0.113l0,-1.029c-1.255,0.158 -1.663,0.533 -1.663,0.985c0,0.372 0.271,0.553 0.69,0.553c0.408,0 0.678,-0.193 0.973,-0.509Z" style="fill:#fff;fill-rule:nonzero;"/><path d="M54.776,11.962l0,-6.942l2.011,0l0,7.008c0,0.428 0.193,0.553 0.351,0.553c0.068,0 0.113,0 0.226,-0.023l0.238,1.481c-0.215,0.089 -0.542,0.169 -0.997,0.169c-1.377,0.003 -1.829,-0.902 -1.829,-2.246Z" style="fill:#fff;fill-rule:nonzero;"/><rect x="24.031" y="16.308" width="0.459" height="2.272" style="fill:#0094c6;fill-rule:nonzero;"/><path d="M26.709,16.308l0.457,0l0,2.272l-0.413,0l-0.824,-1.424l0,1.424l-0.459,0l0,-2.272l0.426,0l0.813,1.408l0,-1.408Z" style="fill:#0094c6;fill-rule:nonzero;"/><path d="M28.018,17.921l0.459,0c0.002,0.163 0.162,0.297 0.372,0.297c0.205,0 0.339,-0.113 0.339,-0.273c0,-0.125 -0.092,-0.215 -0.287,-0.273l-0.278,-0.08c-0.499,-0.132 -0.586,-0.431 -0.586,-0.636c0,-0.405 0.348,-0.685 0.784,-0.685c0.428,0 0.758,0.261 0.758,0.692l-0.459,0c0,-0.163 -0.113,-0.287 -0.311,-0.287c-0.179,0 -0.313,0.117 -0.313,0.27c0,0.057 0.016,0.172 0.254,0.241l0.254,0.073c0.344,0.101 0.643,0.277 0.643,0.661c0,0.452 -0.386,0.699 -0.814,0.699c-0.481,0 -0.815,-0.301 -0.815,-0.699Z" style="fill:#0094c6;fill-rule:nonzero;"/><rect x="30.495" y="16.308" width="0.459" height="2.272" style="fill:#0094c6;fill-rule:nonzero;"/><path d="M31.797,17.445c0,-0.647 0.509,-1.177 1.161,-1.177c0.344,0 0.643,0.141 0.84,0.363l-0.332,0.287c-0.129,-0.139 -0.31,-0.224 -0.508,-0.224c-0.396,0 -0.702,0.346 -0.702,0.751c0,0.405 0.299,0.761 0.716,0.761c0.297,0 0.591,-0.179 0.591,-0.443l-0.643,0l0,-0.372l1.145,0c0,0.841 -0.464,1.227 -1.081,1.227c-0.69,0.002 -1.187,-0.53 -1.187,-1.173Z" style="fill:#0094c6;fill-rule:nonzero;"/><path d="M36.17,16.308l0.456,0l0,2.272l-0.456,0l0,-0.923l-0.848,0l0,0.923l-0.459,0l0,-2.272l0.459,0l0,0.937l0.848,0l0,-0.937Z" style="fill:#0094c6;fill-rule:nonzero;"/><path d="M39.108,16.308l0,0.405l-0.626,0l0,1.867l-0.459,0l0,-1.867l-0.627,0l0,-0.405l1.712,0Z" style="fill:#0094c6;fill-rule:nonzero;"/><rect x="0" y="0" width="18.75" height="18.75" style="fill:#0094c6;fill-rule:nonzero;"/><path d="M9.374,16.676l0,-7.302l7.302,7.302l-7.302,0Z" style="fill:#fff;fill-rule:nonzero;"/><path d="M16.676,2.074l0,7.299l-7.302,-7.299l7.302,0Z" style="fill:#fff;fill-rule:nonzero;"/><path d="M2.072,16.676l0,-7.302l7.302,7.302l-7.302,0Z" style="fill:#fff;fill-rule:nonzero;"/><path d="M9.374,2.074l0,7.299l-7.302,-7.299l7.302,0Z" style="fill:#fff;fill-rule:nonzero;"/></svg>