<?xml version="1.0" encoding="UTF-8" standalone="no"?><!DOCTYPE svg PUBLIC "-//W3C//DTD SVG 1.1//EN" "http://www.w3.org/Graphics/SVG/1.1/DTD/svg11.dtd"><svg width="100%" height="100%" viewBox="0 0 81 25" version="1.1" xmlns="http://www.w3.org/2000/svg" xmlns:xlink="http://www.w3.org/1999/xlink" xml:space="preserve" xmlns:serif="http://www.serif.com/" style="fill-rule:evenodd;clip-rule:evenodd;stroke-linejoin:round;stroke-miterlimit:2;"><path d="M31.293,9.94l2.137,0l0.191,1.458l0.043,0c0.62,-1.12 1.547,-1.667 2.389,-1.667c0.5,0 0.779,0.074 1.016,0.178l-0.427,2.257c-0.31,-0.074 -0.559,-0.132 -0.93,-0.132c-0.618,0 -1.37,0.399 -1.8,1.505l0,4.79l-2.622,0l0,-8.389l0.003,0Z" style="fill:#4f185a;fill-rule:nonzero;"/><path d="M37.219,14.125c0,-2.711 1.962,-4.391 3.98,-4.391c2.417,0 3.596,1.753 3.596,4.038c0,0.473 -0.059,0.927 -0.12,1.136l-4.922,0c0.236,1.149 1.031,1.621 2.094,1.621c0.605,0 1.164,-0.178 1.769,-0.531l0.869,1.579c-0.869,0.62 -2.021,0.958 -2.991,0.958c-2.417,0 -4.275,-1.622 -4.275,-4.41Zm5.353,-0.943c0,-0.826 -0.369,-1.443 -1.327,-1.443c-0.722,0 -1.357,0.458 -1.532,1.443l2.859,0Z" style="fill:#4f185a;fill-rule:nonzero;"/><path d="M46.474,11.988l-1.121,0l0,-1.947l1.121,-0.089l0,-0.338c0,-1.768 0.842,-3.273 3.169,-3.273c0.737,0 1.342,0.147 1.711,0.279l-0.473,1.947c-0.264,-0.117 -0.574,-0.178 -0.854,-0.178c-0.574,0 -0.927,0.31 -0.927,1.148l0,0.4l1.489,0l0,2.048l-1.489,0l0,6.338l-2.623,0l0,-6.335l-0.003,0Z" style="fill:#4f185a;fill-rule:nonzero;"/><path d="M51.459,9.94l2.137,0l0.19,1.458l0.043,0c0.621,-1.12 1.548,-1.667 2.39,-1.667c0.5,0 0.78,0.074 1.016,0.178l-0.427,2.257c-0.31,-0.074 -0.559,-0.132 -0.931,-0.132c-0.617,0 -1.369,0.399 -1.799,1.505l0,4.79l-2.622,0l0,-8.389l0.003,0Z" style="fill:#4f185a;fill-rule:nonzero;"/><path d="M57.382,14.125c0,-2.711 1.962,-4.391 3.979,-4.391c2.417,0 3.596,1.753 3.596,4.038c0,0.473 -0.058,0.927 -0.119,1.136l-4.923,0c0.237,1.149 1.032,1.621 2.094,1.621c0.605,0 1.164,-0.178 1.769,-0.531l0.869,1.579c-0.869,0.62 -2.02,0.958 -2.991,0.958c-2.417,0 -4.274,-1.622 -4.274,-4.41Zm5.352,-0.943c0,-0.826 -0.368,-1.443 -1.326,-1.443c-0.722,0 -1.357,0.458 -1.533,1.443l2.859,0Z" style="fill:#4f185a;fill-rule:nonzero;"/><path d="M65.476,17.355l1.164,-1.636c0.768,0.574 1.458,0.884 2.122,0.884c0.693,0 0.988,-0.252 0.988,-0.663c0,-0.501 -0.81,-0.737 -1.664,-1.075c-1.001,-0.399 -2.137,-1.075 -2.137,-2.478c0,-1.575 1.283,-2.653 3.243,-2.653c1.31,0 2.284,0.531 2.99,1.078l-1.164,1.563c-0.604,-0.427 -1.194,-0.707 -1.737,-0.707c-0.605,0 -0.885,0.206 -0.885,0.605c0,0.501 0.722,0.694 1.591,1.001c1.047,0.4 2.211,1.002 2.211,2.522c0,1.547 -1.21,2.742 -3.495,2.742c-1.09,-0.003 -2.373,-0.476 -3.227,-1.183Z" style="fill:#4f185a;fill-rule:nonzero;"/><path d="M73.273,6.55l2.623,0l0,2.831l-0.132,1.489c0.604,-0.559 1.43,-1.136 2.564,-1.136c1.826,0 2.61,1.311 2.61,3.405l0,5.19l-2.623,0l0,-4.864c0,-1.164 -0.31,-1.489 -0.973,-1.489c-0.59,0 -0.943,0.264 -1.444,0.752l0,5.601l-2.622,0l0,-11.779l-0.003,0Z" style="fill:#4f185a;fill-rule:nonzero;"/><path d="M31.155,22.956c0,-0.835 0.666,-1.532 1.505,-1.532c0.503,0 0.942,0.243 1.21,0.614l-0.458,0.332c-0.166,-0.237 -0.418,-0.384 -0.731,-0.384c-0.537,0 -0.93,0.439 -0.93,0.967c0,0.528 0.387,0.974 0.924,0.974c0.319,0 0.568,-0.148 0.734,-0.384l0.457,0.331c-0.267,0.375 -0.706,0.615 -1.209,0.615c-0.833,0.003 -1.502,-0.691 -1.502,-1.533Z" style="fill:#4f185a;fill-rule:nonzero;"/><path d="M36.741,24.44l-0.239,-0.71l-1.109,0l-0.236,0.71l-0.636,0l1.105,-2.964l0.645,0l1.103,2.964l-0.633,0Zm-1.173,-1.229l0.758,0l-0.377,-1.12l-0.381,1.12Z" style="fill:#4f185a;fill-rule:nonzero;"/><path d="M39.772,24.44l-0.706,-1.063l-0.203,0l0,1.063l-0.599,0l0,-2.964l1.182,0c0.679,0 0.974,0.482 0.974,0.968c0,0.42 -0.298,0.835 -0.713,0.909l0.765,1.087l-0.7,0Zm-0.906,-2.435l0,0.89l0.476,0c0.335,0 0.476,-0.203 0.476,-0.439c0,-0.236 -0.151,-0.451 -0.43,-0.451l-0.522,0Z" style="fill:#4f185a;fill-rule:nonzero;"/><path d="M42.155,23.911l1.299,0l0,0.529l-1.898,0l0,-2.964l1.858,0l0,0.529l-1.259,0l0,0.706l1.105,0l0,0.537l-1.105,0l0,0.663Z" style="fill:#4f185a;fill-rule:nonzero;"/><path d="M45.179,23.911l1.299,0l0,0.529l-1.894,0l0,-2.964l1.858,0l0,0.529l-1.263,0l0,0.706l1.106,0l0,0.537l-1.106,0l0,0.663Z" style="fill:#4f185a;fill-rule:nonzero;"/><path d="M49.116,24.44l-0.706,-1.063l-0.203,0l0,1.063l-0.599,0l0,-2.964l1.183,0c0.678,0 0.973,0.482 0.973,0.968c0,0.42 -0.298,0.835 -0.713,0.909l0.765,1.087l-0.7,0Zm-0.909,-2.435l0,0.89l0.476,0c0.335,0 0.476,-0.203 0.476,-0.439c0,-0.236 -0.15,-0.451 -0.43,-0.451l-0.522,0Z" style="fill:#4f185a;fill-rule:nonzero;"/><path d="M50.731,23.58l0.598,0c0.007,0.212 0.212,0.387 0.486,0.387c0.267,0 0.442,-0.148 0.442,-0.356c0,-0.163 -0.12,-0.28 -0.375,-0.357l-0.362,-0.104c-0.648,-0.172 -0.765,-0.562 -0.765,-0.829c0,-0.528 0.455,-0.894 1.023,-0.894c0.559,0 0.988,0.341 0.988,0.903l-0.598,0c0,-0.212 -0.148,-0.375 -0.406,-0.375c-0.233,0 -0.408,0.154 -0.408,0.354c0,0.073 0.021,0.224 0.332,0.313l0.331,0.095c0.449,0.132 0.839,0.359 0.839,0.863c0,0.589 -0.504,0.912 -1.063,0.912c-0.629,0 -1.062,-0.393 -1.062,-0.912Z" style="fill:#4f185a;fill-rule:nonzero;"/><rect x="0" y="0" width="24.452" height="24.452" style="fill:#e23369;fill-rule:nonzero;"/><path d="M12.225,2.705l0,9.522l-9.522,-9.522l9.522,0Z" style="fill:#fff;fill-rule:nonzero;"/><path d="M21.746,2.705l0,9.522l-9.522,-9.522l9.522,0Z" style="fill:#fff;fill-rule:nonzero;"/><path d="M12.225,12.227l0,9.523l-9.522,-9.523l9.522,0Z" style="fill:#fff;fill-rule:nonzero;"/><path d="M21.746,12.227l0,9.523l-9.522,-9.523l9.522,0Z" style="fill:#fff;fill-rule:nonzero;"/></svg>