<?xml version="1.0" encoding="UTF-8" standalone="no"?><!DOCTYPE svg PUBLIC "-//W3C//DTD SVG 1.1//EN" "http://www.w3.org/Graphics/SVG/1.1/DTD/svg11.dtd"><svg width="100%" height="100%" viewBox="0 0 54 19" version="1.1" xmlns="http://www.w3.org/2000/svg" xmlns:xlink="http://www.w3.org/1999/xlink" xml:space="preserve" xmlns:serif="http://www.serif.com/" style="fill-rule:evenodd;clip-rule:evenodd;stroke-linejoin:round;stroke-miterlimit:2;"><path d="M23.96,7.61l1.636,0l0.146,1.117l0.033,0c0.475,-0.859 1.184,-1.277 1.829,-1.277c0.383,0 0.597,0.056 0.778,0.136l-0.327,1.728c-0.237,-0.056 -0.428,-0.101 -0.71,-0.101c-0.475,0 -1.048,0.306 -1.378,1.152l0,3.667l-2.007,0l0,-6.422Z" style="fill:#fff;fill-rule:nonzero;"/><path d="M28.495,10.814c0,-2.076 1.499,-3.361 3.046,-3.361c1.85,0 2.753,1.342 2.753,3.091c0,0.362 -0.045,0.71 -0.089,0.87l-3.769,0c0.181,0.879 0.79,1.241 1.604,1.241c0.463,0 0.891,-0.136 1.354,-0.407l0.665,1.209c-0.665,0.474 -1.547,0.733 -2.29,0.733c-1.852,0 -3.274,-1.241 -3.274,-3.376Zm4.097,-0.721c0,-0.633 -0.282,-1.105 -1.016,-1.105c-0.552,0 -1.039,0.35 -1.173,1.105l2.189,0Z" style="fill:#fff;fill-rule:nonzero;"/><path d="M34.962,12.236c0,-1.354 1.06,-2.087 3.566,-2.358c-0.045,-0.519 -0.315,-0.825 -0.971,-0.825c-0.508,0 -1.039,0.205 -1.681,0.564l-0.7,-1.321c0.846,-0.507 1.76,-0.846 2.764,-0.846c1.66,0 2.596,0.926 2.596,2.934l0,3.646l-1.637,0l-0.136,-0.644l-0.056,0c-0.532,0.475 -1.129,0.802 -1.839,0.802c-1.185,0.002 -1.906,-0.88 -1.906,-1.952Zm3.564,-0.113l0,-1.027c-1.253,0.158 -1.66,0.531 -1.66,0.983c0,0.371 0.27,0.552 0.689,0.552c0.406,0 0.679,-0.19 0.971,-0.508Z" style="fill:#fff;fill-rule:nonzero;"/><path d="M41.382,10.814c0,-2.12 1.58,-3.364 3.373,-3.364c0.778,0 1.387,0.27 1.874,0.689l-0.938,1.274c-0.294,-0.237 -0.541,-0.339 -0.813,-0.339c-0.892,0 -1.444,0.677 -1.444,1.738c0,1.072 0.588,1.749 1.366,1.749c0.407,0 0.79,-0.193 1.116,-0.452l0.779,1.322c-0.633,0.552 -1.444,0.757 -2.121,0.757c-1.805,0.002 -3.192,-1.239 -3.192,-3.374Z" style="fill:#fff;fill-rule:nonzero;"/><path d="M47.463,5.015l2.008,0l0,2.167l-0.101,1.14c0.463,-0.428 1.096,-0.87 1.963,-0.87c1.399,0 1.998,1.004 1.998,2.608l0,3.973l-2.008,0l0,-3.724c0,-0.891 -0.237,-1.14 -0.744,-1.14c-0.452,0 -0.722,0.202 -1.108,0.576l0,4.288l-2.008,0l0,-9.018Z" style="fill:#fff;fill-rule:nonzero;"/><path d="M24.917,16.441c0.512,0 0.74,0.37 0.74,0.741c0,0.371 -0.228,0.733 -0.74,0.733l-0.468,0l0,0.795l-0.459,0l0,-2.269l0.927,0Zm-0.024,1.075c0.221,0 0.303,-0.172 0.303,-0.332c0,-0.164 -0.082,-0.336 -0.296,-0.336l-0.451,0l0,0.668l0.444,0Z" style="fill:#ffd814;fill-rule:nonzero;"/><path d="M26.311,17.577c0,-0.647 0.507,-1.175 1.151,-1.175c0.642,0 1.157,0.531 1.157,1.175c0,0.642 -0.515,1.173 -1.157,1.173c-0.644,0 -1.151,-0.531 -1.151,-1.173Zm1.847,0c0,-0.409 -0.289,-0.745 -0.696,-0.745c-0.409,0 -0.695,0.336 -0.695,0.745c0,0.409 0.286,0.74 0.695,0.74c0.407,0 0.696,-0.331 0.696,-0.74Z" style="fill:#ffd814;fill-rule:nonzero;"/><path d="M30.961,16.441l0,0.405l-0.628,0l0,1.864l-0.456,0l0,-1.864l-0.625,0l0,-0.405l1.709,0Z" style="fill:#ffd814;fill-rule:nonzero;"/><path d="M32.188,18.306l0.992,0l0,0.404l-1.451,0l0,-2.269l1.423,0l0,0.405l-0.964,0l0,0.541l0.844,0l0,0.411l-0.844,0l0,0.508Z" style="fill:#ffd814;fill-rule:nonzero;"/><path d="M35.281,16.441l0.456,0l0,2.269l-0.411,0l-0.823,-1.422l0,1.422l-0.458,0l0,-2.269l0.425,0l0.811,1.406l0,-1.406Z" style="fill:#ffd814;fill-rule:nonzero;"/><path d="M38.218,16.441l0,0.405l-0.628,0l0,1.864l-0.456,0l0,-1.864l-0.625,0l0,-0.405l1.709,0Z" style="fill:#ffd814;fill-rule:nonzero;"/><rect x="38.986" y="16.441" width="0.458" height="2.269" style="fill:#ffd814;fill-rule:nonzero;"/><path d="M41.833,18.71l-0.183,-0.543l-0.849,0l-0.181,0.543l-0.486,0l0.846,-2.269l0.493,0l0.844,2.269l-0.484,0Zm-0.898,-0.94l0.578,0l-0.289,-0.858l-0.289,0.858Z" style="fill:#ffd814;fill-rule:nonzero;"/><path d="M43.458,18.306l0.86,0l0,0.404l-1.316,0l0,-2.269l0.456,0l0,1.865Z" style="fill:#ffd814;fill-rule:nonzero;"/><rect x="0" y="0" width="18.72" height="18.72" style="fill:#ffd814;fill-rule:nonzero;"/><path d="M16.649,9.361l-7.29,-7.29l0,7.29l-7.29,-7.29l0,14.58l7.29,-7.29l0,7.29l7.29,-7.29Z" style="fill:#fff;fill-rule:nonzero;"/></svg>