<?xml version="1.0" encoding="UTF-8" standalone="no"?><!DOCTYPE svg PUBLIC "-//W3C//DTD SVG 1.1//EN" "http://www.w3.org/Graphics/SVG/1.1/DTD/svg11.dtd"><svg width="100%" height="100%" viewBox="0 0 76 25" version="1.1" xmlns="http://www.w3.org/2000/svg" xmlns:xlink="http://www.w3.org/1999/xlink" xml:space="preserve" xmlns:serif="http://www.serif.com/" style="fill-rule:evenodd;clip-rule:evenodd;stroke-linejoin:round;stroke-miterlimit:2;"><path d="M31.406,9.956l2.141,0l0.19,1.461l0.044,0c0.621,-1.123 1.55,-1.67 2.392,-1.67c0.502,0 0.782,0.074 1.018,0.178l-0.427,2.261c-0.311,-0.074 -0.56,-0.132 -0.932,-0.132c-0.618,0 -1.372,0.4 -1.802,1.507l0,4.798l-2.627,0l0,-8.403l0.003,0Z" style="fill:#4f185a;fill-rule:nonzero;"/><path d="M37.342,14.148c0,-2.716 1.966,-4.398 3.986,-4.398c2.421,0 3.602,1.756 3.602,4.045c0,0.473 -0.058,0.928 -0.12,1.138l-4.93,0c0.237,1.15 1.033,1.624 2.097,1.624c0.606,0 1.166,-0.179 1.772,-0.533l0.87,1.581c-0.87,0.622 -2.023,0.96 -2.995,0.96c-2.421,-0.003 -4.282,-1.627 -4.282,-4.417Zm5.361,-0.944c0,-0.827 -0.369,-1.446 -1.329,-1.446c-0.722,0 -1.359,0.459 -1.534,1.446l2.863,0Z" style="fill:#4f185a;fill-rule:nonzero;"/><path d="M46.169,9.956l2.141,0l0.19,1.049l0.043,0c0.696,-0.68 1.551,-1.255 2.689,-1.255c1.83,0 2.614,1.313 2.614,3.411l0,5.198l-2.627,0l0,-4.875c0,-1.166 -0.31,-1.492 -0.975,-1.492c-0.59,0 -0.944,0.265 -1.445,0.754l0,5.61l-2.627,0l0,-8.4l-0.003,0Z" style="fill:#4f185a;fill-rule:nonzero;"/><path d="M54.969,14.148c0,-2.716 1.965,-4.398 3.986,-4.398c2.42,0 3.601,1.756 3.601,4.045c0,0.473 -0.058,0.928 -0.12,1.138l-4.93,0c0.237,1.15 1.033,1.624 2.098,1.624c0.606,0 1.165,-0.179 1.771,-0.533l0.87,1.581c-0.87,0.622 -2.023,0.96 -2.995,0.96c-2.421,-0.003 -4.281,-1.627 -4.281,-4.417Zm5.361,-0.944c0,-0.827 -0.37,-1.446 -1.329,-1.446c-0.723,0 -1.359,0.459 -1.535,1.446l2.864,0Z" style="fill:#4f185a;fill-rule:nonzero;"/><path d="M63.147,9.956l2.599,0l0.754,3.749c0.132,0.843 0.221,1.667 0.354,2.525l0.073,0c0.148,-0.855 0.28,-1.697 0.49,-2.525l0.87,-3.749l2.257,0l0.901,3.749c0.191,0.843 0.339,1.667 0.518,2.525l0.073,0c0.133,-0.855 0.222,-1.682 0.369,-2.525l0.723,-3.749l2.436,0l-1.978,8.4l-3.069,0l-0.707,-3.205c-0.164,-0.781 -0.296,-1.55 -0.444,-2.467l-0.074,0c-0.132,0.917 -0.252,1.682 -0.399,2.467l-0.68,3.205l-2.996,0l-2.07,-8.4Z" style="fill:#4f185a;fill-rule:nonzero;"/><path d="M31.221,23.409l0.6,0c0.006,0.212 0.212,0.388 0.486,0.388c0.268,0 0.443,-0.148 0.443,-0.357c0,-0.163 -0.12,-0.28 -0.375,-0.357l-0.363,-0.104c-0.649,-0.173 -0.766,-0.563 -0.766,-0.831c0,-0.529 0.455,-0.895 1.024,-0.895c0.56,0 0.991,0.342 0.991,0.904l-0.6,0c0,-0.212 -0.148,-0.375 -0.406,-0.375c-0.234,0 -0.409,0.154 -0.409,0.354c0,0.074 0.021,0.224 0.332,0.314l0.332,0.095c0.449,0.132 0.84,0.363 0.84,0.864c0,0.591 -0.505,0.914 -1.064,0.914c-0.631,0 -1.065,-0.394 -1.065,-0.914Z" style="fill:#4f185a;fill-rule:nonzero;"/><path d="M36.785,24.27l-0.775,0l-0.957,-1.193l0,1.193l-0.599,0l0,-2.968l0.599,0l0,1.215l0.828,-1.215l0.719,0l-1.03,1.474l1.215,1.494Z" style="fill:#4f185a;fill-rule:nonzero;"/><rect x="37.662" y="21.302" width="0.6" height="2.968" style="fill:#4f185a;fill-rule:nonzero;"/><path d="M40.145,23.741l1.122,0l0,0.529l-1.722,0l0,-2.968l0.6,0l0,2.439Z" style="fill:#4f185a;fill-rule:nonzero;"/><path d="M42.873,23.741l1.125,0l0,0.529l-1.722,0l0,-2.968l0.597,0l0,2.439Z" style="fill:#4f185a;fill-rule:nonzero;"/><path d="M44.835,23.409l0.6,0c0.006,0.212 0.212,0.388 0.486,0.388c0.267,0 0.443,-0.148 0.443,-0.357c0,-0.163 -0.12,-0.28 -0.376,-0.357l-0.363,-0.104c-0.648,-0.173 -0.765,-0.563 -0.765,-0.831c0,-0.529 0.455,-0.895 1.024,-0.895c0.56,0 0.99,0.342 0.99,0.904l-0.6,0c0,-0.212 -0.147,-0.375 -0.406,-0.375c-0.233,0 -0.409,0.154 -0.409,0.354c0,0.074 0.022,0.224 0.333,0.314l0.332,0.095c0.449,0.132 0.839,0.363 0.839,0.864c0,0.591 -0.504,0.914 -1.064,0.914c-0.627,0 -1.064,-0.394 -1.064,-0.914Z" style="fill:#4f185a;fill-rule:nonzero;"/><rect x="0" y="0" width="24.492" height="24.492" style="fill:#ff8f3b;fill-rule:nonzero;"/><path d="M15.04,15.025l6.708,-6.708l0,13.416l-6.708,-6.708Z" style="fill:#fff;fill-rule:nonzero;"/><path d="M9.483,15.025l6.708,6.708l-13.417,0l6.709,-6.708Z" style="fill:#fff;fill-rule:nonzero;"/><path d="M9.483,9.467l-6.709,6.708l0,-13.416l6.709,6.708Z" style="fill:#fff;fill-rule:nonzero;"/><path d="M15.04,9.467l-6.708,-6.708l13.416,0l-6.708,6.708Z" style="fill:#fff;fill-rule:nonzero;"/></svg>