<?xml version="1.0" encoding="UTF-8" standalone="no"?><!DOCTYPE svg PUBLIC "-//W3C//DTD SVG 1.1//EN" "http://www.w3.org/Graphics/SVG/1.1/DTD/svg11.dtd"><svg width="100%" height="100%" viewBox="0 0 62 19" version="1.1" xmlns="http://www.w3.org/2000/svg" xmlns:xlink="http://www.w3.org/1999/xlink" xml:space="preserve" xmlns:serif="http://www.serif.com/" style="fill-rule:evenodd;clip-rule:evenodd;stroke-linejoin:round;stroke-miterlimit:2;"><path d="M23.957,7.61l1.636,0l0.146,1.116l0.033,0c0.475,-0.858 1.185,-1.276 1.829,-1.276c0.383,0 0.597,0.056 0.778,0.136l-0.327,1.728c-0.237,-0.056 -0.428,-0.101 -0.712,-0.101c-0.473,0 -1.048,0.306 -1.378,1.152l0,3.667l-2.007,0l0,-6.422l0.002,0Z" style="fill:#fff;fill-rule:nonzero;"/><path d="M28.494,10.814c0,-2.076 1.502,-3.362 3.047,-3.362c1.85,0 2.753,1.343 2.753,3.092c0,0.362 -0.045,0.71 -0.092,0.87l-3.768,0c0.181,0.879 0.79,1.241 1.603,1.241c0.463,0 0.891,-0.137 1.354,-0.407l0.665,1.208c-0.665,0.475 -1.546,0.734 -2.289,0.734c-1.85,0 -3.273,-1.241 -3.273,-3.376Zm4.098,-0.722c0,-0.632 -0.282,-1.104 -1.016,-1.104c-0.552,0 -1.039,0.35 -1.173,1.104l2.189,0Z" style="fill:#fff;fill-rule:nonzero;"/><path d="M35.58,9.178l-0.858,0l0,-1.49l0.858,-0.069l0,-0.258c0,-1.354 0.644,-2.506 2.426,-2.506c0.564,0 1.027,0.113 1.309,0.214l-0.362,1.49c-0.202,-0.089 -0.44,-0.136 -0.653,-0.136c-0.44,0 -0.71,0.237 -0.71,0.879l0,0.306l1.14,0l0,1.568l-1.14,0l0,4.852l-2.008,0l0,-4.85l-0.002,0Z" style="fill:#fff;fill-rule:nonzero;"/><path d="M39.395,7.61l1.636,0l0.146,1.116l0.033,0c0.475,-0.858 1.185,-1.276 1.829,-1.276c0.383,0 0.597,0.056 0.778,0.136l-0.327,1.728c-0.237,-0.056 -0.428,-0.101 -0.712,-0.101c-0.473,0 -1.049,0.306 -1.378,1.152l0,3.667l-2.007,0l0,-6.422l0.002,0Z" style="fill:#fff;fill-rule:nonzero;"/><path d="M43.93,10.814c0,-2.076 1.502,-3.362 3.046,-3.362c1.851,0 2.753,1.343 2.753,3.092c0,0.362 -0.045,0.71 -0.091,0.87l-3.769,0c0.181,0.879 0.79,1.241 1.603,1.241c0.464,0 0.891,-0.137 1.355,-0.407l0.665,1.208c-0.665,0.475 -1.547,0.734 -2.29,0.734c-1.85,0 -3.272,-1.241 -3.272,-3.376Zm4.097,-0.722c0,-0.632 -0.282,-1.104 -1.015,-1.104c-0.553,0 -1.039,0.35 -1.173,1.104l2.188,0Z" style="fill:#fff;fill-rule:nonzero;"/><path d="M50.126,13.287l0.891,-1.253c0.588,0.44 1.117,0.677 1.625,0.677c0.531,0 0.757,-0.193 0.757,-0.508c0,-0.383 -0.621,-0.564 -1.274,-0.822c-0.767,-0.306 -1.636,-0.823 -1.636,-1.897c0,-1.206 0.982,-2.032 2.482,-2.032c1.004,0 1.749,0.407 2.29,0.826l-0.891,1.196c-0.463,-0.327 -0.915,-0.541 -1.331,-0.541c-0.463,0 -0.677,0.158 -0.677,0.464c0,0.383 0.553,0.531 1.218,0.766c0.801,0.306 1.692,0.766 1.692,1.93c0,1.185 -0.926,2.099 -2.675,2.099c-0.834,-0.002 -1.817,-0.364 -2.471,-0.905Z" style="fill:#fff;fill-rule:nonzero;"/><path d="M56.095,5.015l2.008,0l0,2.167l-0.101,1.14c0.463,-0.428 1.095,-0.87 1.963,-0.87c1.398,0 1.998,1.004 1.998,2.607l0,3.973l-2.008,0l0,-3.723c0,-0.891 -0.237,-1.14 -0.745,-1.14c-0.451,0 -0.722,0.202 -1.105,0.575l0,4.288l-2.008,0l0,-9.017l-0.002,0Z" style="fill:#fff;fill-rule:nonzero;"/><path d="M23.851,17.574c0,-0.639 0.511,-1.173 1.152,-1.173c0.386,0 0.722,0.186 0.927,0.471l-0.351,0.253c-0.127,-0.181 -0.319,-0.293 -0.559,-0.293c-0.412,0 -0.713,0.336 -0.713,0.74c0,0.404 0.297,0.745 0.708,0.745c0.245,0 0.435,-0.113 0.562,-0.294l0.35,0.254c-0.204,0.287 -0.541,0.47 -0.926,0.47c-0.637,0.003 -1.15,-0.528 -1.15,-1.173Z" style="fill:#e23369;fill-rule:nonzero;"/><path d="M28.128,18.71l-0.184,-0.543l-0.848,0l-0.181,0.543l-0.487,0l0.846,-2.269l0.494,0l0.844,2.269l-0.484,0Zm-0.898,-0.94l0.58,0l-0.289,-0.859l-0.291,0.859Z" style="fill:#e23369;fill-rule:nonzero;"/><path d="M30.448,18.71l-0.541,-0.814l-0.155,0l0,0.814l-0.458,0l0,-2.269l0.905,0c0.519,0 0.745,0.369 0.745,0.741c0,0.322 -0.228,0.639 -0.546,0.696l0.586,0.832l-0.536,0Zm-0.694,-1.864l0,0.681l0.365,0c0.256,0 0.364,-0.155 0.364,-0.336c0,-0.181 -0.115,-0.345 -0.329,-0.345l-0.4,0Z" style="fill:#e23369;fill-rule:nonzero;"/><path d="M32.272,18.306l0.994,0l0,0.404l-1.452,0l0,-2.269l1.422,0l0,0.405l-0.964,0l0,0.54l0.846,0l0,0.412l-0.846,0l0,0.508Z" style="fill:#e23369;fill-rule:nonzero;"/><path d="M34.588,18.306l0.994,0l0,0.404l-1.451,0l0,-2.269l1.423,0l0,0.405l-0.966,0l0,0.54l0.846,0l0,0.412l-0.846,0l0,0.508Z" style="fill:#e23369;fill-rule:nonzero;"/><path d="M37.601,18.71l-0.54,-0.814l-0.156,0l0,0.814l-0.458,0l0,-2.269l0.905,0c0.52,0 0.745,0.369 0.745,0.741c0,0.322 -0.228,0.639 -0.545,0.696l0.585,0.832l-0.536,0Zm-0.696,-1.864l0,0.681l0.365,0c0.256,0 0.364,-0.155 0.364,-0.336c0,-0.181 -0.115,-0.345 -0.329,-0.345l-0.4,0Z" style="fill:#e23369;fill-rule:nonzero;"/><path d="M38.838,18.052l0.458,0c0.005,0.162 0.162,0.296 0.372,0.296c0.204,0 0.338,-0.113 0.338,-0.273c0,-0.124 -0.091,-0.214 -0.287,-0.272l-0.277,-0.08c-0.496,-0.132 -0.585,-0.431 -0.585,-0.635c0,-0.404 0.348,-0.684 0.782,-0.684c0.428,0 0.757,0.261 0.757,0.691l-0.458,0c0,-0.162 -0.113,-0.287 -0.31,-0.287c-0.179,0 -0.313,0.118 -0.313,0.271c0,0.056 0.017,0.171 0.254,0.239l0.254,0.073c0.343,0.101 0.642,0.275 0.642,0.661c0,0.451 -0.386,0.698 -0.814,0.698c-0.482,0 -0.813,-0.301 -0.813,-0.698Z" style="fill:#e23369;fill-rule:nonzero;"/><rect x="0" y="0" width="18.72" height="18.72" style="fill:#e23369;fill-rule:nonzero;"/><path d="M9.359,2.071l0,7.29l-7.29,-7.29l7.29,0Z" style="fill:#fff;fill-rule:nonzero;"/><path d="M16.648,2.071l0,7.29l-7.289,-7.29l7.289,0Z" style="fill:#fff;fill-rule:nonzero;"/><path d="M9.359,9.361l0,7.29l-7.29,-7.29l7.29,0Z" style="fill:#fff;fill-rule:nonzero;"/><path d="M16.648,9.361l0,7.29l-7.289,-7.29l7.289,0Z" style="fill:#fff;fill-rule:nonzero;"/></svg>